<svg width="401" height="87" viewBox="0 0 401 87" fill="none" xmlns="http://www.w3.org/2000/svg">
<path d="M277.98 51.9758C279.276 52.0564 279.992 50.4572 279.012 49.5252L278.914 49.1401C278.927 49.1092 278.94 49.0784 278.953 49.0476C280.263 45.9438 284.702 45.9652 286.001 49.0736C287.154 51.8325 288.621 54.5961 288.983 57.5132C289.145 58.8008 289.072 60.1127 288.784 61.3762C291.486 55.5132 292.907 49.1109 292.907 42.6724C292.907 41.0547 292.818 39.437 292.636 37.8233C292.486 36.5034 292.279 35.1916 292.012 33.8918C290.566 26.8658 287.436 20.1737 282.921 14.5843C280.75 13.4052 278.94 11.5622 277.846 9.35299C277.454 8.55619 277.146 7.69907 277 6.82586C277.247 6.85806 277.931 3.11966 277.745 2.8903C278.089 2.37121 278.706 2.11317 279.082 1.60664C280.951 -0.912529 283.528 -0.472674 284.872 2.95069C287.746 4.39155 287.773 6.78112 286.01 9.07934C284.889 10.5415 284.735 12.5199 283.751 14.0853C283.852 14.2141 283.957 14.3388 284.059 14.4676C285.915 16.8338 287.521 19.3771 288.874 22.049C288.492 19.0795 289.057 15.5021 290.02 13.196C291.116 10.5685 293.17 8.35558 294.979 6.08409C297.152 3.35568 301.609 4.54641 301.992 8.0051C301.995 8.03859 301.999 8.07204 302.002 8.10553C301.734 8.25617 301.47 8.41622 301.213 8.58522C299.746 9.54919 300.253 11.8087 301.991 12.0753L302.031 12.0813C301.934 13.0431 301.767 13.9968 301.525 14.9344C303.846 23.8536 298.835 27.1021 291.68 27.2481C291.522 27.3285 291.368 27.409 291.21 27.4855C291.935 29.5136 292.514 31.5941 292.943 33.7027C293.328 35.5658 293.595 37.4491 293.745 39.3404C293.932 41.7267 293.915 44.125 293.713 46.5073L293.725 46.4228C294.239 43.7991 295.673 41.3484 297.754 39.6503C300.855 37.1191 305.236 36.187 308.581 34.1525C310.192 33.1731 312.255 34.4387 311.974 36.2939C311.97 36.3235 311.965 36.3531 311.96 36.3827C311.462 36.5839 310.976 36.8173 310.507 37.0789C310.238 37.2295 309.975 37.3896 309.717 37.5586C308.251 38.5226 308.758 40.7821 310.496 41.0487L310.535 41.0547C310.563 41.0587 310.588 41.0627 310.616 41.0668C309.761 43.0828 308.571 44.954 307.081 46.5677C305.629 54.3538 299.396 55.0925 292.729 52.8251H292.725C291.996 55.98 290.931 59.0624 289.562 62H278.263C278.223 61.8753 278.187 61.7465 278.15 61.6217C279.195 61.6861 280.248 61.6258 281.276 61.4366C280.438 60.4145 279.6 59.3843 278.762 58.3622C278.741 58.3421 278.725 58.322 278.709 58.3019C278.284 57.7788 277.854 57.2596 277.429 56.7365L277.429 56.7359C277.402 55.13 277.596 53.5294 277.98 51.976L277.98 51.9758L277.98 51.9758Z" fill="#DFCA4E"/>
<path d="M140.376 29.712C140.376 31.056 139.944 33.376 139.08 36.672C138.216 39.936 137.784 42.08 137.784 43.104C137.784 44.096 137.928 44.592 138.216 44.592C138.408 44.592 139.144 44.288 140.424 43.68L141 43.392L141.816 45.072C141.528 45.328 141.144 45.648 140.664 46.032C140.184 46.416 139.288 46.944 137.976 47.616C136.664 48.256 135.448 48.576 134.328 48.576C133.208 48.576 132.328 48.24 131.688 47.568C131.048 46.864 130.728 45.936 130.728 44.784C130.728 43.6 131.128 41.52 131.928 38.544C132.728 35.536 133.128 33.584 133.128 32.688C133.128 31.344 132.712 30.08 131.88 28.896L131.448 28.32L131.496 27.696C133.192 27.216 135.944 26.976 139.752 26.976C140.168 27.456 140.376 28.368 140.376 29.712ZM134.904 21.744C134.264 21.104 133.944 20.256 133.944 19.2C133.944 18.144 134.376 17.216 135.24 16.416C136.136 15.616 137.16 15.216 138.312 15.216C139.464 15.216 140.36 15.536 141 16.176C141.64 16.816 141.96 17.664 141.96 18.72C141.96 19.744 141.496 20.656 140.568 21.456C139.672 22.256 138.664 22.656 137.544 22.656C136.424 22.656 135.544 22.352 134.904 21.744ZM157.534 27.312C157.47 28.016 157.182 28.944 156.67 30.096C155.454 29.968 154.254 29.904 153.07 29.904H152.878C152.206 37.808 151.582 43.648 151.006 47.424C150.43 51.2 149.678 53.84 148.75 55.344C147.598 55.312 146.398 55.152 145.15 54.864C143.934 54.608 143.102 54.336 142.654 54.048C143.422 51.68 144.19 48.112 144.958 43.344C145.758 38.576 146.27 34.176 146.494 30.144C145.598 30.208 144.606 30.32 143.518 30.48C143.422 30.064 143.374 29.648 143.374 29.232C143.374 28.784 143.438 28.144 143.566 27.312H146.638C146.702 24.528 146.846 22.416 147.07 20.976C147.454 18.416 148.334 16.416 149.71 14.976C151.118 13.504 152.926 12.768 155.134 12.768C156.542 12.768 157.646 13.088 158.446 13.728C159.278 14.336 159.694 15.312 159.694 16.656C159.694 18 159.086 19.744 157.87 21.888C156.654 24 155.054 25.808 153.07 27.312H157.534ZM153.166 24.288C154.414 23.232 155.39 22.064 156.094 20.784C156.798 19.504 157.15 18.352 157.15 17.328C157.15 16.272 156.814 15.744 156.142 15.744C154.734 15.744 153.838 17.36 153.454 20.592C153.326 21.68 153.23 22.912 153.166 24.288ZM200.55 32.544C200.902 33.408 201.142 34.352 201.27 35.376C200.534 35.824 199.414 36.288 197.91 36.768C196.406 37.248 194.998 37.536 193.686 37.632C192.278 40.928 190.326 43.584 187.83 45.6C185.366 47.584 182.294 48.576 178.614 48.576C174.934 48.576 172.118 47.344 170.166 44.88C168.246 42.384 167.286 38.944 167.286 34.56C167.286 30.144 168.31 26.128 170.358 22.512C172.406 18.864 175.334 16.016 179.142 13.968L180.15 15.648C176.694 19.968 174.966 26.16 174.966 34.224C174.966 39.472 175.766 42.816 177.366 44.256C178.102 44.96 179.03 45.312 180.15 45.312C183.318 45.312 185.622 42.592 187.062 37.152C184.566 36.704 182.646 35.648 181.302 33.984C179.958 32.288 179.286 29.936 179.286 26.928C179.286 23.888 180.15 21.168 181.878 18.768C183.606 16.336 185.686 15.12 188.118 15.12C190.582 15.12 192.502 16.208 193.878 18.384C195.254 20.528 195.942 23.296 195.942 26.688C195.942 28.832 195.51 31.44 194.646 34.512C196.086 34.448 197.75 33.952 199.638 33.024L200.55 32.544ZM188.358 26.592C188.358 24.288 188.23 22.592 187.974 21.504C187.718 20.384 187.11 19.824 186.15 19.824C185.19 19.824 184.294 20.544 183.462 21.984C182.662 23.392 182.262 25.136 182.262 27.216C182.262 29.296 182.726 30.928 183.654 32.112C184.582 33.264 185.894 33.92 187.59 34.08C188.102 31.36 188.358 28.864 188.358 26.592ZM213.053 41.712C213.053 43.728 212.157 45.376 210.365 46.656C208.605 47.936 206.589 48.576 204.317 48.576C202.045 48.576 200.237 48.096 198.893 47.136C197.581 46.176 196.925 45.328 196.925 44.592C196.925 44.144 197.485 43.424 198.605 42.432C199.725 41.408 200.669 40.784 201.437 40.56C203.037 41.744 204.349 43.616 205.373 46.176C206.557 46.08 207.149 45.52 207.149 44.496C207.149 43.024 205.853 40.944 203.261 38.256C200.669 35.536 199.373 33.376 199.373 31.776C199.373 30.176 200.093 28.944 201.533 28.08C202.973 27.184 204.701 26.736 206.717 26.736C208.765 26.736 210.301 27.104 211.325 27.84C212.349 28.544 212.861 29.52 212.861 30.768C212.861 31.984 211.885 33.68 209.933 35.856C210.157 36.08 210.445 36.384 210.797 36.768C211.149 37.12 211.613 37.808 212.189 38.832C212.765 39.856 213.053 40.816 213.053 41.712ZM208.445 34.176C209.789 33.024 210.461 31.888 210.461 30.768C210.461 29.648 209.693 29.088 208.157 29.088C207.421 29.088 206.813 29.248 206.333 29.568C205.853 29.856 205.613 30.192 205.613 30.576C205.613 31.28 206.317 32.272 207.725 33.552L208.445 34.176ZM226.324 29.136C225.044 29.136 224.02 30.208 223.252 32.352C222.484 34.464 222.1 36.736 222.1 39.168C222.1 43.008 223.284 44.928 225.652 44.928C226.42 44.928 227.236 44.752 228.1 44.4C228.964 44.016 229.652 43.648 230.164 43.296L230.884 42.72L231.988 44.208C231.732 44.56 231.22 45.024 230.452 45.6C229.684 46.176 228.964 46.656 228.292 47.04C227.62 47.424 226.756 47.776 225.7 48.096C224.644 48.416 223.604 48.576 222.58 48.576C220.084 48.576 218.212 47.76 216.964 46.128C215.716 44.496 215.092 42.304 215.092 39.552C215.092 35.744 216.132 32.656 218.212 30.288C220.324 27.92 223.028 26.736 226.324 26.736C228.468 26.736 230.164 27.232 231.412 28.224C232.692 29.184 233.332 30.384 233.332 31.824C233.332 33.232 232.884 34.448 231.988 35.472C231.188 35.472 230.26 35.296 229.204 34.944C228.148 34.592 227.348 34.16 226.804 33.648L227.524 29.424C227.236 29.232 226.836 29.136 226.324 29.136ZM248.666 28.128C248.73 28.064 248.906 27.648 249.194 26.88C250.698 26.88 252.714 27.328 255.242 28.224C254.442 30.88 253.802 33.664 253.322 36.576C252.842 39.456 252.602 41.52 252.602 42.768C252.602 43.984 252.73 44.592 252.986 44.592C253.178 44.592 253.882 44.288 255.098 43.68L255.674 43.392L256.538 45.072C256.25 45.328 255.866 45.648 255.386 46.032C254.938 46.416 254.074 46.944 252.794 47.616C251.514 48.256 250.362 48.576 249.338 48.576C247.354 48.576 246.202 47.68 245.882 45.888C243.834 47.68 241.978 48.576 240.314 48.576C238.682 48.576 237.29 47.936 236.138 46.656C235.018 45.376 234.458 43.36 234.458 40.608C234.458 36.32 235.338 32.944 237.098 30.48C238.858 27.984 240.986 26.736 243.482 26.736C245.274 26.736 247.002 27.2 248.666 28.128ZM243.194 44.496C243.962 44.496 244.826 44.192 245.786 43.584C246.01 39.072 246.762 34.608 248.042 30.192C247.082 29.776 246.266 29.568 245.594 29.568C244.442 29.568 243.45 30.704 242.618 32.976C241.818 35.216 241.418 37.696 241.418 40.416C241.418 43.136 242.01 44.496 243.194 44.496ZM258.384 48.144H258.048C257.984 47.888 257.952 47.312 257.952 46.416C257.952 45.488 258.384 43.024 259.248 39.024C260.112 35.024 260.544 32.736 260.544 32.16C260.544 31.168 260.096 30.08 259.2 28.896L258.768 28.32L258.816 27.696C260.544 27.216 263.312 26.976 267.12 26.976C267.504 27.808 267.696 28.976 267.696 30.48C268.048 29.904 268.784 29.136 269.904 28.176C271.024 27.216 272.176 26.736 273.36 26.736C275.088 26.736 275.952 28.24 275.952 31.248C275.792 31.44 275.568 31.696 275.28 32.016C275.024 32.304 274.48 32.72 273.648 33.264C272.848 33.808 272.064 34.144 271.296 34.272C271.264 34.272 270.992 33.84 270.48 32.976C269.968 32.112 269.584 31.68 269.328 31.68C268.528 31.968 267.824 32.448 267.216 33.12C265.744 39.744 265.008 44.032 265.008 45.984C265.008 46.688 265.024 47.184 265.056 47.472C263.936 47.92 261.712 48.144 258.384 48.144Z" fill="#DFCA4E"/>
<path d="M124.02 51.9758C122.724 52.0564 122.008 50.4572 122.988 49.5252L123.086 49.1401C123.073 49.1092 123.06 49.0784 123.047 49.0476C121.737 45.9438 117.298 45.9652 115.999 49.0736C114.846 51.8325 113.379 54.5961 113.017 57.5132C112.855 58.8008 112.928 60.1127 113.216 61.3762C110.514 55.5132 109.093 49.1109 109.093 42.6724C109.093 41.0547 109.182 39.437 109.364 37.8233C109.514 36.5034 109.721 35.1916 109.988 33.8918C111.434 26.8658 114.564 20.1737 119.079 14.5843C121.25 13.4052 123.06 11.5622 124.154 9.35299C124.546 8.55619 124.854 7.69907 125 6.82586C124.753 6.85806 124.069 3.11966 124.255 2.8903C123.911 2.37121 123.294 2.11317 122.918 1.60664C121.049 -0.912529 118.472 -0.472674 117.128 2.95069C114.255 4.39155 114.227 6.78112 115.99 9.07934C117.111 10.5415 117.265 12.5199 118.249 14.0853C118.148 14.2141 118.043 14.3388 117.941 14.4676C116.085 16.8338 114.479 19.3771 113.126 22.049C113.508 19.0795 112.943 15.5021 111.98 13.196C110.884 10.5685 108.83 8.35558 107.021 6.08409C104.848 3.35568 100.391 4.54641 100.008 8.0051C100.005 8.03859 100.001 8.07204 99.9976 8.10553C100.266 8.25617 100.53 8.41622 100.787 8.58522C102.254 9.54919 101.747 11.8087 100.009 12.0753L99.9693 12.0813C100.066 13.0431 100.232 13.9968 100.475 14.9344C98.1545 23.8536 103.165 27.1021 110.32 27.2481C110.478 27.3285 110.632 27.409 110.79 27.4855C110.065 29.5136 109.486 31.5941 109.057 33.7027C108.672 35.5658 108.405 37.4491 108.255 39.3404C108.068 41.7267 108.085 44.125 108.287 46.5073L108.275 46.4228C107.761 43.7991 106.327 41.3484 104.246 39.6503C101.145 37.1191 96.7639 36.187 93.4187 34.1525C91.8084 33.1731 89.7449 34.4387 90.0259 36.2939C90.0304 36.3235 90.0349 36.3531 90.0396 36.3827C90.5377 36.5839 91.0236 36.8173 91.4934 37.0789C91.7621 37.2295 92.0254 37.3896 92.2825 37.5586C93.7494 38.5226 93.2424 40.7821 91.5044 41.0487L91.465 41.0547C91.4367 41.0587 91.4124 41.0627 91.3841 41.0668C92.2385 43.0828 93.4291 44.954 94.9194 46.5677C96.3706 54.3538 102.604 55.0925 109.271 52.8251H109.275C110.004 55.98 111.069 59.0624 112.438 62H123.737C123.777 61.8753 123.813 61.7465 123.85 61.6217C122.805 61.6861 121.752 61.6258 120.724 61.4366C121.562 60.4145 122.4 59.3843 123.238 58.3622C123.259 58.3421 123.275 58.322 123.291 58.3019C123.716 57.7788 124.146 57.2596 124.571 56.7365L124.571 56.7359C124.598 55.13 124.404 53.5294 124.02 51.976L124.02 51.9758L124.02 51.9758Z" fill="#DFCA4E"/>
<line x1="0.998541" y1="85" x2="400.998" y2="84.7082" stroke="#DFCA4E" stroke-width="4" stroke-dasharray="8 16 24 32"/>
</svg>
