<svg width="601" height="87" viewBox="0 0 601 87" fill="none" xmlns="http://www.w3.org/2000/svg">
<path d="M377.98 51.9758C379.276 52.0564 379.992 50.4572 379.012 49.5252L378.914 49.1401C378.927 49.1092 378.94 49.0784 378.953 49.0476C380.263 45.9438 384.702 45.9652 386.001 49.0736C387.154 51.8325 388.621 54.5961 388.983 57.5132C389.145 58.8009 389.072 60.1127 388.784 61.3762C391.486 55.5132 392.907 49.1109 392.907 42.6724C392.907 41.0547 392.818 39.437 392.636 37.8233C392.486 36.5034 392.279 35.1916 392.012 33.8918C390.566 26.8658 387.436 20.1737 382.921 14.5843C380.75 13.4052 378.94 11.5622 377.846 9.35299C377.454 8.55619 377.146 7.69907 377 6.82586C377.247 6.85806 377.931 3.11966 377.745 2.8903C378.089 2.37121 378.706 2.11317 379.082 1.60664C380.951 -0.912528 383.528 -0.472674 384.872 2.95069C387.746 4.39155 387.773 6.78112 386.01 9.07934C384.889 10.5415 384.735 12.5199 383.751 14.0853C383.852 14.2141 383.957 14.3388 384.059 14.4676C385.915 16.8338 387.521 19.3771 388.874 22.049C388.492 19.0795 389.057 15.5021 390.02 13.196C391.116 10.5685 393.17 8.35558 394.979 6.08409C397.152 3.35568 401.609 4.54641 401.992 8.0051C401.995 8.03859 401.999 8.07204 402.002 8.10553C401.734 8.25617 401.47 8.41622 401.213 8.58522C399.746 9.54919 400.253 11.8087 401.991 12.0753L402.031 12.0813C401.934 13.0431 401.767 13.9968 401.525 14.9344C403.846 23.8536 398.835 27.1021 391.68 27.2481C391.522 27.3285 391.368 27.409 391.21 27.4855C391.935 29.5136 392.514 31.5941 392.943 33.7027C393.328 35.5658 393.595 37.4491 393.745 39.3404C393.932 41.7267 393.915 44.125 393.713 46.5073L393.725 46.4228C394.239 43.7991 395.673 41.3484 397.754 39.6503C400.855 37.1191 405.236 36.187 408.581 34.1525C410.192 33.1731 412.255 34.4387 411.974 36.2939C411.97 36.3235 411.965 36.3531 411.96 36.3827C411.462 36.5839 410.976 36.8173 410.507 37.0789C410.238 37.2295 409.975 37.3896 409.717 37.5586C408.251 38.5226 408.758 40.7821 410.496 41.0487L410.535 41.0547C410.563 41.0587 410.588 41.0627 410.616 41.0668C409.761 43.0828 408.571 44.954 407.081 46.5677C405.629 54.3538 399.396 55.0925 392.729 52.8251H392.725C391.996 55.98 390.931 59.0624 389.562 62H378.263C378.223 61.8753 378.187 61.7465 378.15 61.6217C379.195 61.6861 380.248 61.6258 381.276 61.4367C380.438 60.4145 379.6 59.3843 378.762 58.3622C378.741 58.3421 378.725 58.322 378.709 58.3019C378.284 57.7788 377.854 57.2596 377.429 56.7365L377.429 56.7359C377.402 55.13 377.596 53.5294 377.98 51.976L377.98 51.9758L377.98 51.9758Z" fill="#DFCA4E"/>
<path d="M240.376 29.712C240.376 31.056 239.944 33.376 239.08 36.672C238.216 39.936 237.784 42.08 237.784 43.104C237.784 44.096 237.928 44.592 238.216 44.592C238.408 44.592 239.144 44.288 240.424 43.68L241 43.392L241.816 45.072C241.528 45.328 241.144 45.648 240.664 46.032C240.184 46.416 239.288 46.944 237.976 47.616C236.664 48.256 235.448 48.576 234.328 48.576C233.208 48.576 232.328 48.24 231.688 47.568C231.048 46.864 230.728 45.936 230.728 44.784C230.728 43.6 231.128 41.52 231.928 38.544C232.728 35.536 233.128 33.584 233.128 32.688C233.128 31.344 232.712 30.08 231.88 28.896L231.448 28.32L231.496 27.696C233.192 27.216 235.944 26.976 239.752 26.976C240.168 27.456 240.376 28.368 240.376 29.712ZM234.904 21.744C234.264 21.104 233.944 20.256 233.944 19.2C233.944 18.144 234.376 17.216 235.24 16.416C236.136 15.616 237.16 15.216 238.312 15.216C239.464 15.216 240.36 15.536 241 16.176C241.64 16.816 241.96 17.664 241.96 18.72C241.96 19.744 241.496 20.656 240.568 21.456C239.672 22.256 238.664 22.656 237.544 22.656C236.424 22.656 235.544 22.352 234.904 21.744ZM257.534 27.312C257.47 28.016 257.182 28.944 256.67 30.096C255.454 29.968 254.254 29.904 253.07 29.904H252.878C252.206 37.808 251.582 43.648 251.006 47.424C250.43 51.2 249.678 53.84 248.75 55.344C247.598 55.312 246.398 55.152 245.15 54.864C243.934 54.608 243.102 54.336 242.654 54.048C243.422 51.68 244.19 48.112 244.958 43.344C245.758 38.576 246.27 34.176 246.494 30.144C245.598 30.208 244.606 30.32 243.518 30.48C243.422 30.064 243.374 29.648 243.374 29.232C243.374 28.784 243.438 28.144 243.566 27.312H246.638C246.702 24.528 246.846 22.416 247.07 20.976C247.454 18.416 248.334 16.416 249.71 14.976C251.118 13.504 252.926 12.768 255.134 12.768C256.542 12.768 257.646 13.088 258.446 13.728C259.278 14.336 259.694 15.312 259.694 16.656C259.694 18 259.086 19.744 257.87 21.888C256.654 24 255.054 25.808 253.07 27.312H257.534ZM253.166 24.288C254.414 23.232 255.39 22.064 256.094 20.784C256.798 19.504 257.15 18.352 257.15 17.328C257.15 16.272 256.814 15.744 256.142 15.744C254.734 15.744 253.838 17.36 253.454 20.592C253.326 21.68 253.23 22.912 253.166 24.288ZM300.55 32.544C300.902 33.408 301.142 34.352 301.27 35.376C300.534 35.824 299.414 36.288 297.91 36.768C296.406 37.248 294.998 37.536 293.686 37.632C292.278 40.928 290.326 43.584 287.83 45.6C285.366 47.584 282.294 48.576 278.614 48.576C274.934 48.576 272.118 47.344 270.166 44.88C268.246 42.384 267.286 38.944 267.286 34.56C267.286 30.144 268.31 26.128 270.358 22.512C272.406 18.864 275.334 16.016 279.142 13.968L280.15 15.648C276.694 19.968 274.966 26.16 274.966 34.224C274.966 39.472 275.766 42.816 277.366 44.256C278.102 44.96 279.03 45.312 280.15 45.312C283.318 45.312 285.622 42.592 287.062 37.152C284.566 36.704 282.646 35.648 281.302 33.984C279.958 32.288 279.286 29.936 279.286 26.928C279.286 23.888 280.15 21.168 281.878 18.768C283.606 16.336 285.686 15.12 288.118 15.12C290.582 15.12 292.502 16.208 293.878 18.384C295.254 20.528 295.942 23.296 295.942 26.688C295.942 28.832 295.51 31.44 294.646 34.512C296.086 34.448 297.75 33.952 299.638 33.024L300.55 32.544ZM288.358 26.592C288.358 24.288 288.23 22.592 287.974 21.504C287.718 20.384 287.11 19.824 286.15 19.824C285.19 19.824 284.294 20.544 283.462 21.984C282.662 23.392 282.262 25.136 282.262 27.216C282.262 29.296 282.726 30.928 283.654 32.112C284.582 33.264 285.894 33.92 287.59 34.08C288.102 31.36 288.358 28.864 288.358 26.592ZM313.053 41.712C313.053 43.728 312.157 45.376 310.365 46.656C308.605 47.936 306.589 48.576 304.317 48.576C302.045 48.576 300.237 48.096 298.893 47.136C297.581 46.176 296.925 45.328 296.925 44.592C296.925 44.144 297.485 43.424 298.605 42.432C299.725 41.408 300.669 40.784 301.437 40.56C303.037 41.744 304.349 43.616 305.373 46.176C306.557 46.08 307.149 45.52 307.149 44.496C307.149 43.024 305.853 40.944 303.261 38.256C300.669 35.536 299.373 33.376 299.373 31.776C299.373 30.176 300.093 28.944 301.533 28.08C302.973 27.184 304.701 26.736 306.717 26.736C308.765 26.736 310.301 27.104 311.325 27.84C312.349 28.544 312.861 29.52 312.861 30.768C312.861 31.984 311.885 33.68 309.933 35.856C310.157 36.08 310.445 36.384 310.797 36.768C311.149 37.12 311.613 37.808 312.189 38.832C312.765 39.856 313.053 40.816 313.053 41.712ZM308.445 34.176C309.789 33.024 310.461 31.888 310.461 30.768C310.461 29.648 309.693 29.088 308.157 29.088C307.421 29.088 306.813 29.248 306.333 29.568C305.853 29.856 305.613 30.192 305.613 30.576C305.613 31.28 306.317 32.272 307.725 33.552L308.445 34.176ZM326.324 29.136C325.044 29.136 324.02 30.208 323.252 32.352C322.484 34.464 322.1 36.736 322.1 39.168C322.1 43.008 323.284 44.928 325.652 44.928C326.42 44.928 327.236 44.752 328.1 44.4C328.964 44.016 329.652 43.648 330.164 43.296L330.884 42.72L331.988 44.208C331.732 44.56 331.22 45.024 330.452 45.6C329.684 46.176 328.964 46.656 328.292 47.04C327.62 47.424 326.756 47.776 325.7 48.096C324.644 48.416 323.604 48.576 322.58 48.576C320.084 48.576 318.212 47.76 316.964 46.128C315.716 44.496 315.092 42.304 315.092 39.552C315.092 35.744 316.132 32.656 318.212 30.288C320.324 27.92 323.028 26.736 326.324 26.736C328.468 26.736 330.164 27.232 331.412 28.224C332.692 29.184 333.332 30.384 333.332 31.824C333.332 33.232 332.884 34.448 331.988 35.472C331.188 35.472 330.26 35.296 329.204 34.944C328.148 34.592 327.348 34.16 326.804 33.648L327.524 29.424C327.236 29.232 326.836 29.136 326.324 29.136ZM348.666 28.128C348.73 28.064 348.906 27.648 349.194 26.88C350.698 26.88 352.714 27.328 355.242 28.224C354.442 30.88 353.802 33.664 353.322 36.576C352.842 39.456 352.602 41.52 352.602 42.768C352.602 43.984 352.73 44.592 352.986 44.592C353.178 44.592 353.882 44.288 355.098 43.68L355.674 43.392L356.538 45.072C356.25 45.328 355.866 45.648 355.386 46.032C354.938 46.416 354.074 46.944 352.794 47.616C351.514 48.256 350.362 48.576 349.338 48.576C347.354 48.576 346.202 47.68 345.882 45.888C343.834 47.68 341.978 48.576 340.314 48.576C338.682 48.576 337.29 47.936 336.138 46.656C335.018 45.376 334.458 43.36 334.458 40.608C334.458 36.32 335.338 32.944 337.098 30.48C338.858 27.984 340.986 26.736 343.482 26.736C345.274 26.736 347.002 27.2 348.666 28.128ZM343.194 44.496C343.962 44.496 344.826 44.192 345.786 43.584C346.01 39.072 346.762 34.608 348.042 30.192C347.082 29.776 346.266 29.568 345.594 29.568C344.442 29.568 343.45 30.704 342.618 32.976C341.818 35.216 341.418 37.696 341.418 40.416C341.418 43.136 342.01 44.496 343.194 44.496ZM358.384 48.144H358.048C357.984 47.888 357.952 47.312 357.952 46.416C357.952 45.488 358.384 43.024 359.248 39.024C360.112 35.024 360.544 32.736 360.544 32.16C360.544 31.168 360.096 30.08 359.2 28.896L358.768 28.32L358.816 27.696C360.544 27.216 363.312 26.976 367.12 26.976C367.504 27.808 367.696 28.976 367.696 30.48C368.048 29.904 368.784 29.136 369.904 28.176C371.024 27.216 372.176 26.736 373.36 26.736C375.088 26.736 375.952 28.24 375.952 31.248C375.792 31.44 375.568 31.696 375.28 32.016C375.024 32.304 374.48 32.72 373.648 33.264C372.848 33.808 372.064 34.144 371.296 34.272C371.264 34.272 370.992 33.84 370.48 32.976C369.968 32.112 369.584 31.68 369.328 31.68C368.528 31.968 367.824 32.448 367.216 33.12C365.744 39.744 365.008 44.032 365.008 45.984C365.008 46.688 365.024 47.184 365.056 47.472C363.936 47.92 361.712 48.144 358.384 48.144Z" fill="#DFCA4E"/>
<path d="M224.02 51.9758C222.724 52.0564 222.008 50.4572 222.988 49.5252L223.086 49.1401C223.073 49.1092 223.06 49.0784 223.047 49.0476C221.737 45.9438 217.298 45.9652 215.999 49.0736C214.846 51.8325 213.379 54.5961 213.017 57.5132C212.855 58.8009 212.928 60.1127 213.216 61.3762C210.514 55.5132 209.093 49.1109 209.093 42.6724C209.093 41.0547 209.182 39.437 209.364 37.8233C209.514 36.5034 209.721 35.1916 209.988 33.8918C211.434 26.8658 214.564 20.1737 219.079 14.5843C221.25 13.4052 223.06 11.5622 224.154 9.35299C224.546 8.55619 224.854 7.69907 225 6.82586C224.753 6.85806 224.069 3.11966 224.255 2.8903C223.911 2.37121 223.294 2.11317 222.919 1.60664C221.049 -0.912528 218.472 -0.472674 217.128 2.95069C214.255 4.39155 214.227 6.78112 215.99 9.07934C217.111 10.5415 217.265 12.5199 218.249 14.0853C218.148 14.2141 218.043 14.3388 217.941 14.4676C216.085 16.8338 214.479 19.3771 213.126 22.049C213.508 19.0795 212.943 15.5021 211.98 13.196C210.884 10.5685 208.83 8.35558 207.021 6.08409C204.848 3.35568 200.391 4.54641 200.008 8.0051C200.005 8.03859 200.001 8.07204 199.998 8.10553C200.266 8.25617 200.53 8.41622 200.787 8.58522C202.254 9.54919 201.747 11.8087 200.009 12.0753L199.969 12.0813C200.066 13.0431 200.232 13.9968 200.475 14.9344C198.154 23.8536 203.165 27.1021 210.32 27.2481C210.478 27.3285 210.632 27.409 210.79 27.4855C210.065 29.5136 209.486 31.5941 209.057 33.7027C208.672 35.5658 208.405 37.4491 208.255 39.3404C208.068 41.7267 208.085 44.125 208.287 46.5073L208.275 46.4228C207.761 43.7991 206.327 41.3484 204.246 39.6503C201.145 37.1191 196.764 36.187 193.419 34.1525C191.808 33.1731 189.745 34.4387 190.026 36.2939C190.03 36.3235 190.035 36.3531 190.04 36.3827C190.538 36.5839 191.024 36.8173 191.493 37.0789C191.762 37.2295 192.025 37.3896 192.283 37.5586C193.749 38.5226 193.242 40.7821 191.504 41.0487L191.465 41.0547C191.437 41.0587 191.412 41.0627 191.384 41.0668C192.239 43.0828 193.429 44.954 194.919 46.5677C196.371 54.3538 202.604 55.0925 209.271 52.8251H209.275C210.004 55.98 211.069 59.0624 212.438 62H223.737C223.777 61.8753 223.813 61.7465 223.85 61.6217C222.805 61.6861 221.752 61.6258 220.724 61.4367C221.562 60.4145 222.4 59.3843 223.238 58.3622C223.259 58.3421 223.275 58.322 223.291 58.3019C223.716 57.7788 224.146 57.2596 224.571 56.7365L224.571 56.7359C224.598 55.13 224.404 53.5294 224.02 51.976L224.02 51.9758L224.02 51.9758Z" fill="#DFCA4E"/>
<line x1="0.998541" y1="85" x2="600.998" y2="84.5624" stroke="#DFCA4E" stroke-width="4" stroke-dasharray="8 16 24 32"/>
</svg>
